<svg width="111" height="30" viewBox="0 0 111 30" fill="none" xmlns="http://www.w3.org/2000/svg">
<g clip-path="url(#clip0_463_3)">
<path d="M5.93767 14.2806L0.000846863 30C1.75078 29.7497 3.49977 29.4367 5.28156 29.1555L8.62583 20.4686L12.0629 28.4375C13.75 28.1563 15.4072 28.0617 17.0943 27.8433L11.0628 14.0932L16.5319 0H11.4687L8.4065 7.87422L5.12504 0H0.000846863L5.93767 14.2806ZM20.5313 0H25.125V27.25C23.6254 27.3437 22.0629 27.4056 20.5313 27.593V0ZM29.0945 26.9369C33.2814 26.6557 37.4692 26.4064 41.7498 26.3117V0H37.0634V21.8746C34.3752 21.9374 31.688 22.1558 29.0945 22.2804V26.9369ZM46.7503 10.6561V15.3435H53.1558V25.9996H57.7813V0H44.6564V4.68741H53.1558V10.6561H46.7503ZM65.6565 4.68741V26.2499C67.219 26.2499 68.8124 26.2499 70.3439 26.3117V4.68741H75.1878V0H60.7816V4.68741H65.6565ZM80.2502 15.5928C82.3122 15.5928 84.7501 15.5928 86.5 15.6875V22.6563C83.75 22.4679 81 22.2495 78.219 22.1558V26.6557L91.1875 27.6877V0H78.219V4.68741H86.5V10.9992C84.6873 10.9992 81.9064 10.9054 80.2502 10.9054V15.5928ZM106.219 12.9684V29.343C107.906 29.5314 109.407 29.7497 111 30V0H106.531L100.438 17.0316V0H95.7502V28.0617C97.4064 28.3438 99.0935 28.4375 100.875 28.6868L106.219 12.9684Z" fill="#E50914"/>
</g>
<defs>
<clipPath id="clip0_463_3">
<rect width="111" height="30" fill="white" transform="matrix(-1 0 0 1 111 0)"/>
</clipPath>
</defs>
</svg>
